<?xml version="1.0" standalone="no"?>
<!DOCTYPE svg PUBLIC "-//W3C//DTD SVG 20010904//EN"
 "http://www.w3.org/TR/2001/REC-SVG-20010904/DTD/svg10.dtd">
<svg version="1.0" xmlns="http://www.w3.org/2000/svg"
 width="690.000000pt" height="690.000000pt" viewBox="0 0 690.000000 690.000000"
 preserveAspectRatio="xMidYMid meet">
<metadata>
Created by potrace 1.14, written by Peter Selinger 2001-2017
</metadata>
<g transform="translate(0.000000,690.000000) scale(0.100000,-0.100000)"
fill="#000000" stroke="none">
<path d="M3307 6894 c-1 -1 -40 -4 -87 -8 -88 -7 -131 -12 -190 -23 -19 -3
-42 -7 -50 -8 -310 -50 -665 -187 -956 -367 -407 -254 -760 -640 -973 -1068
-18 -36 -37 -73 -43 -83 -40 -78 -153 -404 -172 -497 -8 -41 -15 -71 -20 -88
-3 -9 -7 -34 -10 -54 -14 -89 -18 -114 -22 -138 -24 -136 -23 -639 1 -713 2
-6 6 -30 9 -52 18 -147 87 -403 155 -574 59 -147 192 -411 213 -419 4 -2 8 -8
8 -14 0 -14 107 -168 187 -268 81 -103 290 -313 393 -396 97 -78 229 -171 303
-213 51 -29 58 -36 51 -55 -5 -11 -8 -64 -8 -116 0 -100 17 -158 72 -240 35
-53 127 -144 188 -186 30 -21 50 -40 45 -44 -21 -12 -38 -77 -35 -126 7 -107
67 -213 164 -292 l58 -47 -5 -52 c-7 -65 16 -141 64 -205 35 -49 130 -126 183
-149 16 -8 30 -18 30 -24 0 -5 13 -39 30 -73 112 -237 478 -358 790 -261 169
53 295 158 347 292 15 37 31 53 94 96 136 91 193 177 195 297 l1 71 77 75 c94
92 136 175 141 272 3 50 -1 73 -16 101 -11 21 -19 38 -17 40 2 1 21 14 43 28
57 39 160 142 195 197 47 73 72 154 72 235 1 39 -4 80 -10 92 -17 32 -15 37
21 57 69 40 239 158 314 217 103 82 332 312 417 419 70 89 173 239 221 325 15
28 35 61 44 75 8 14 16 27 17 30 0 3 22 49 47 102 88 184 174 440 203 608 2
14 9 48 14 75 26 137 38 282 37 473 0 152 -6 197 -23 179 -3 -2 -7 -29 -9 -58
-2 -30 -7 -76 -11 -104 -4 -27 -8 -59 -9 -70 -1 -11 -7 -45 -13 -75 -7 -30
-14 -64 -16 -75 -69 -344 -284 -777 -516 -1040 -187 -212 -346 -352 -545 -480
-100 -65 -280 -161 -365 -195 -30 -12 -68 -28 -85 -35 -118 -51 -398 -123
-545 -140 -30 -4 -66 -9 -80 -11 -14 -2 -110 -6 -215 -8 -169 -3 -311 6 -425
28 -14 3 -36 7 -50 10 -50 8 -157 37 -235 64 -44 14 -82 27 -85 27 -23 6 -179
76 -230 103 -258 140 -460 301 -630 502 -30 35 -61 71 -68 78 -57 62 -204 314
-275 472 -54 119 -111 320 -142 495 -20 117 -28 427 -13 545 23 191 108 470
196 645 114 230 301 459 502 617 41 33 82 65 90 71 39 31 161 103 258 152 167
84 407 158 587 180 28 4 61 8 75 11 31 6 304 6 345 0 17 -2 57 -7 90 -11 75
-8 169 -28 260 -55 39 -11 77 -22 85 -24 8 -2 27 -9 42 -15 26 -10 31 -6 135
112 156 176 188 212 322 362 91 102 111 126 111 134 0 7 -69 41 -175 86 -36
16 -180 67 -250 89 -51 16 -235 60 -290 70 -55 10 -157 23 -240 32 -54 6 -382
13 -388 8z"/>
<path d="M4708 6483 c-42 -49 -86 -100 -99 -114 -26 -28 -140 -156 -204 -229
-22 -25 -42 -47 -45 -50 -5 -5 -276 -312 -330 -374 -14 -16 -34 -39 -45 -50
-11 -12 -51 -57 -90 -101 -97 -110 -128 -146 -140 -159 -6 -6 -154 -173 -329
-371 -175 -198 -335 -378 -355 -400 -20 -22 -67 -76 -106 -120 -38 -44 -80
-90 -92 -102 -13 -12 -23 -26 -23 -30 0 -4 214 -8 475 -8 418 0 499 -3 468
-17 -5 -1 -26 -23 -47 -48 -41 -46 -179 -201 -206 -230 -8 -9 -46 -52 -85 -96
-38 -43 -72 -81 -75 -84 -7 -7 -158 -175 -201 -224 -42 -48 -69 -79 -117 -131
-21 -22 -107 -119 -192 -215 -85 -96 -157 -177 -160 -180 -4 -3 -66 -72 -140
-155 -73 -82 -151 -168 -171 -190 -21 -22 -36 -41 -34 -43 2 -2 124 90 273
205 148 114 284 219 302 233 18 14 59 45 90 70 32 25 129 100 216 168 269 208
1517 1171 1548 1195 16 12 64 49 106 82 43 33 131 101 195 150 65 50 131 101
147 115 l29 25 -438 -1 c-241 0 -442 1 -446 4 -4 2 9 22 29 45 21 23 70 78
109 122 40 44 150 168 246 275 95 107 178 200 184 206 5 6 37 42 70 79 33 38
65 73 71 79 5 6 34 38 64 71 29 33 86 96 126 140 40 44 82 93 94 107 l20 27
-82 69 c-140 115 -300 225 -454 309 -34 18 -66 33 -71 33 -5 0 -43 -39 -85
-87z"/>
</g>
</svg>
